<?xml version="1.0" encoding="UTF-8"?>
<svg id="Layer_1" data-name="Layer 1" xmlns="http://www.w3.org/2000/svg" viewBox="0 0 576 576">
  <defs>
    <style>
      .cls-1 {
        fill: #264fa0;
      }

      .cls-2 {
        fill: #b2def5;
      }
    </style>
  </defs>
  <path class="cls-1" d="M395.3,281.85c.03.57.03,1.1.03,1.65,0,52.02-.33,103.68-.36,155.63-.02,6.46-5.21,11.66-11.65,11.66h-44.58c-6.44,0-11.66-5.21-11.66-11.66v-38.72c0-6.44-5.22-11.66-11.66-11.66h-38.41c-58.8,0-106.34-46.8-106.34-105.24,0-.55,0-1.08.02-1.65-.02-.55-.02-1.07-.02-1.61,0-52,.33-103.73.34-155.68,0-6.44,5.21-11.65,11.65-11.65h44.56c6.44,0,11.66,5.21,11.66,11.65v38.76c0,6.43,5.24,11.68,11.66,11.68h38.45c58.77,0,106.34,46.78,106.34,105.24,0,.55,0,1.07-.03,1.61Z"/>
  <path class="cls-2" d="M245.94,307.04v-62.08c0-7.7,8.33-12.52,15.01-8.69l54.09,31.04c6.71,3.85,6.71,13.53,0,17.38l-54.09,31.04c-6.68,3.83-15.01-.99-15.01-8.69Z"/>
</svg>