<?xml version="1.0" encoding="UTF-8"?>
<svg id="Layer_1" data-name="Layer 1" xmlns="http://www.w3.org/2000/svg" viewBox="0 0 576 576">
  <defs>
    <style>
      .cls-1 {
        fill: #fff;
      }
    </style>
  </defs>
  <path class="cls-1" d="M397.88,286.39c0-58.46-47.57-105.24-106.34-105.24h-38.45c-6.43,0-11.66-5.26-11.66-11.68v-38.76c0-6.44-5.22-11.65-11.66-11.65h-44.56c-6.44,0-11.65,5.21-11.65,11.65-.02,51.95-.34,103.68-.34,155.68,0,.55,0,1.07.02,1.61-.02.57-.02,1.1-.02,1.65,0,58.44,47.54,105.24,106.34,105.24h38.41c6.44,0,11.66,5.22,11.66,11.66v38.72c0,6.46,5.22,11.66,11.66,11.66h44.58c6.44,0,11.63-5.21,11.65-11.66.03-51.95.36-103.61.36-155.63,0-.55,0-1.08-.03-1.65.03-.55.03-1.07.03-1.61ZM317.58,290.84l-54.09,31.04c-6.68,3.83-15.01-.99-15.01-8.69v-62.08c0-7.7,8.33-12.53,15.01-8.69l54.09,31.04c6.71,3.85,6.71,13.53,0,17.38Z"/>
</svg>