<?xml version="1.0" encoding="UTF-8"?>
<svg id="Layer_1" data-name="Layer 1" xmlns="http://www.w3.org/2000/svg" viewBox="0 0 576 576">
  <defs>
    <style>
      .cls-1 {
        fill: #62a6db;
      }

      .cls-2 {
        fill: #264fa0;
      }

      .cls-3 {
        fill: #b2def5;
      }
    </style>
  </defs>
  <g>
    <path class="cls-2" d="M162.88,368.87c-1.11-4.38-3.61-8.7-7.63-10.96-4.81-2.75-12.27-2.88-16.61,1.15-.72.56-1.05.91-1.08.14-.2-3.53.39-18.7-.24-20.48-2.76-.23-7.32-.02-10.22-.09-1.59,0-2.51-.02-2.76.04-.14.03-.17.09-.18.21.02,4.17-.02,47.79,0,60.45-.05.42.29.37.64.39,1.39.01,7.81,0,10.13,0,1.6.17,1.35-1.71,1.66-2.8.19-.78.49-.96,1.01-.55,4.97,5.44,14.34,5.29,19.75.73,7.5-6.77,7.45-18.77,5.59-28.03l-.05-.21ZM150.54,378.72c.06,4.75-.5,11.99-6.9,11.49-2.87-.06-5.4-1.24-6.08-3.8-.03-1.29,0-6.06-.01-10.2,0-2.08,0-4.11,0-5.99.32-2.16,2.67-3.59,4.82-3.88,7.35-1.35,8.36,6.85,8.18,12.16v.21Z"/>
    <path class="cls-2" d="M183.87,338.71c.38,6.21.01,24.03.14,33.43,0,13.38.01,25.99,0,27.36-.01.07-.04.12-.13.15-.14.05-.44.06-1.01.06-2.33-.04-9.36.11-12.19-.07-.22-3.95-.13-56.89-.03-60.87,3.22-.22,10.45-.07,13.18-.06h.05Z"/>
    <path class="cls-2" d="M230.65,356.74c.37.54.02,3.4.14,7.73-.18,11.95.35,32.94-.2,35.2-2.78.16-8.95.02-11.32.05-.28-.02-.54-.05-.74-.23-.61-.19-.26-3.77-1.22-3.54-4.72,4.54-11.41,5.72-17.38,3.37-5.51-2.06-7.84-8.31-7.89-13.76-.11-7.45,0-25.04-.03-28.45,0-.47.45-.41.82-.44,1.98,0,9.75,0,11.73,0,.28.01.61-.02.76.2.2,6.75,0,23.51.07,27.03-.15,2.36.98,5.45,3.7,5.97,3.11.7,7.5-.38,8.25-3.72.04-3.29-.06-23.31.03-29.2.06-.24.3-.25.55-.27,1.91.03,10.28-.1,12.67.03l.05.02Z"/>
    <path class="cls-2" d="M277.07,376.66c.19-12.43-8.27-21.74-21.01-20.71-11.72.19-19.18,10.01-19.21,21.2-1.25,15.67,11.66,25.6,26.62,22.99,4.38-.83,9.4-2.95,11.96-6.83.14-1.48-1.22-2.13-2.23-3.59-1.03-1.18-1.78-2.24-2.69-3.1-.8-.73-1.51.06-2.19.6-5.21,4.56-15.41,3.95-17.44-3.54-.22-.81-.26-1.19.36-1.24,3.44-.02,22.5.01,25.3-.02.53-.08.46-.39.52-1.07.02-1.28.02-3.11,0-4.48v-.2ZM264,373.92c-.06.22-.33.09-.87.13h-2.14c-3.67-.02-9.53.04-10.34-.03-.06-.03-.1-.1-.1-.22.18-2.7,1.75-6.44,4.6-7.21,5.36-1.51,9.46,1.9,8.87,7.24l-.02.09Z"/>
    <path class="cls-2" d="M321.28,368.61c-1.26-4.8-4.43-9.58-9.19-11.48-4.69-1.95-11.11-1.62-14.78,1.78-.38.33-1.03.95-1.34.92-1.01-.24-.34-3.05-1.59-3.1-2.67-.14-9.14,0-11-.04-.33.02-.72-.07-.74.29,0,3.46,0,49.02,0,57.76.01.6-.04.96.03,1.39.11.13.32.14.55.14,1.54.01,9.9.01,11.98,0,.45,0,.85-.07.82-.58.15-2.5-.24-16.01.15-18.99.21-.15.9.58,1.86,1.3,4.74,3.63,12.16,3.1,16.79-.38,8.29-6.62,8.68-19.13,6.52-28.8l-.06-.21ZM309.03,378.67c-.1,3.54-.33,8.45-3.62,10.69-2.1,1.31-5.68,1-7.64-.6-.83-.73-1.76-1.74-1.74-2.86,0-.9,0-1.65,0-2.78,0-4.22,0-11.16,0-12.92.3-2.14,2.54-3.53,4.62-3.83,7.24-1.46,8.56,6.74,8.37,12.1v.21Z"/>
    <path class="cls-2" d="M354.17,356.47c.49.35.38,1.11.36,2.44-.02,1.05-.05,2.37-.07,3.69-.2,1.75.28,4.54-.41,5.88-.54.38-1.43.16-2.11.15-3.76-.32-8.78.24-10.07,4.18-.09,5.22.01,24.22-.04,26.5,0,.46-.44.42-.82.44-1.71.01-7.75,0-10.64,0-1.12-.07-1.77.2-1.93-.29-.02-2.8,0-38.8,0-42.36.02-.41.15-.36.74-.4,2,.11,9.21-.24,11.39.14.83.77.48,2.78.76,3.82.08.54.2.8.4.73.34-.13.74-.83,1.05-1.2,2.48-3.51,7.25-5.15,11.29-3.79l.1.07Z"/>
    <path class="cls-2" d="M359.1,345.52c-.06-8.18,14.12-8.64,14.83-.61,1.03,9.2-14.77,9.73-14.83.82v-.21ZM373.21,356.76c.32,8.7.02,40.97.1,42.72-.16.42-.69.15-1.47.23-2.56,0-8.69,0-10.85,0-1.6.08-.98-.3-1.11-1.35.15-6.95-.28-38.89.16-41.59,2.87-.14,10.02-.05,13.12-.01h.04Z"/>
    <path class="cls-2" d="M420.05,372.23c.02,6.31,0,24.05,0,26.98-.01.3-.05.45-.38.5-2.86.1-7.73,0-10.9.04-1.32-.01-1.93.04-2.09-.16-.53-4.87.56-24.2-.51-29.78-1.13-4.94-9.64-4.15-11.35-.51-.36,7.28,0,26.44-.13,29.96-.02.33-.09.42-.47.46-.35.03-1.01.02-1.94.02-2.72,0-8.07.04-10.67-.03-.19-.03-.26-.09-.29-.21-.01-2.86-.03-33.09-.02-42-.01-.5-.06-.81.49-.79,2.27,0,8.66-.07,11.35.03,1.23.26.75,2.63,1.11,3.57.26,1.15.88.42,1.44-.09,4.32-4.44,11.87-5.44,17.32-2.95,5.52,2.47,7.03,9.47,7.03,14.82v.15Z"/>
    <path class="cls-2" d="M450.39,390.07c.25.15.33.46.36.77.07,1.39.02,5,.02,6.87.04.99-.41,1.8-1.41,2.01-2.08.57-4.26.78-6.43.76-7.68.15-13.14-4.21-13.2-12.08-.13-5.77,0-15.84-.05-20.71.06-1.61-.04-1.67-1.49-1.68-.97-.05-2.44.1-3.36-.14-.39-.13-.51-.4-.56-.81-.08-1.36-.03-5.33-.03-7.05.02-.56.1-1.09.73-1.22.92-.18,2.73-.04,3.62-.13.57-.05.87-.19.98-.54.26-2.29.02-6.51.1-8.93-.02-.86.16-1.21.97-1.18,2.24,0,9.99-.03,11.71.02.44.01.65.26.67.69.12,1.62-.1,7.38.11,9.4.11.4.4.52,1.03.56,1.01.05,2.62,0,3.71.02,1.05.02,2.28-.18,2.24,1.12.02,1.6.04,5.83-.01,7.24-.06.67-.32.87-1.08.92-1.15.06-3.9,0-5.03.05-.59.05-.85.07-.91.58-.04,2.4,0,13.38-.02,17.98-.19,5.76,2.64,5.31,7.22,5.44l.09.05Z"/>
  </g>
  <path class="cls-1" d="M312.19,415.03c-.02,3.27.08,11-.04,13.6-.29.23-.65.1-1.44.14-.67,0-1.41,0-1.81,0-.41-.03-.52,0-.54-.3,0-1.85,0-15.18,0-16.67.01-.09.05-.15.16-.18.59-.08,1.54-.03,2.2-.04.27,0,.5,0,.68.02.62.02.59.48.65,1.45.05.87.11,1.64.12,1.89v.09ZM311.16,419.19c-1.36.43-.67-2.45-.38-3.2,1.07-4.54,7.88-6.55,10.7-2.62.94,1.38,1.07,3.13,1.06,4.73,0,1.59,0,6.09,0,8.65-.01.77.03,1.34-.05,1.64-.07.24-.26.34-.67.39-.64.05-1.98.06-2.6-.02-.34-.06-.49-.18-.53-.5-.08-1.92.04-7.95-.05-10.77,0-3.28-4.12-4.08-5.98-1.7-.85.91-.75,2.35-1.4,3.32l-.09.08ZM321.79,418.32c-.62.59-1.48.06-1.25-1.03.05-.28.12-.61.19-.89.63-2.47,2.49-4.52,5.02-4.97,9.35-1.44,6.72,8.96,7.1,15.24-.12,1.13.41,1.97-.72,2.11-.64.05-2,.06-2.62-.02-.34-.06-.49-.18-.53-.5-.05-1.33,0-6.79-.02-9.21.03-1.52.04-3.69-1.69-4.38-1.46-.6-3.52-.05-4.31,1.31-.5.67-.51,1.6-1.05,2.22l-.12.11Z"/>
  <path class="cls-1" d="M346.93,418.6c.33.49.34,1.69-.38,1.93-.45.18-1.14.12-1.8.14-1.89,0-4.35.36-4.72,2.53-.38,2.45,2.64,3.4,4.6,2.37.47-.22.9-.53,1.26-.91.46-.5.71-1.06,1.03-1.05.45-.06,1.04,1,.81,1.76-.27.86-1.03,1.73-1.78,2.32-2.99,2.51-8.83,1.55-9.83-2.58-1.35-6.08,6.28-7.56,10.69-6.61l.11.1ZM346.47,425.47c-.03-1.9,0-5.59-.01-7.32.2-2.09-.91-4.09-3.34-3.92-1.14-.02-2.18.73-2.78,1.56-.32.36-.7.59-1.32.68-4.21.61-2.44-2.36-.42-3.82,3.22-2.07,8.6-1.96,10.85,1.25,1.5,2.34.85,5.23.98,7.89.02,2.46-.07,3.21.16,4.76.01.65.59,1.56.03,2.04-.55.29-2.36.33-3.22-.03-.89-.5-.81-2.02-.92-2.94v-.15Z"/>
  <path class="cls-1" d="M358.12,414.81c.01,2.6,0,5.87,0,8.71-.03,2.58.06,4.77-.05,5.12-.29.23-.65.09-1.44.13-.67,0-1.41,0-1.81,0-.41-.03-.52,0-.54-.3,0-1.85,0-15.18,0-16.67.16-.4.75-.16,1.53-.22.68,0,1.38-.03,1.72.05.41.14.42.5.45.94.04.64.08,1.56.11,2.15v.1ZM363.34,411.47c.13.78,0,2.74,0,3.31-.03.14-.1.19-.23.19-1.94-.3-4.43.19-5.07,2.26-.3.51-.09,1.78-.93,1.63-.49-.26-.18-1.02-.2-1.48.11-3.28,2.66-7.15,6.34-5.98l.08.06Z"/>
  <path class="cls-1" d="M369.48,404.41c.4.38.05,2.17.17,4.83,0,4.37.02,17.25-.01,19.28-.06.22-.21.2-.48.23-.46.03-1.55.02-2.3.02-.72-.06-1.11.14-1.05-.59,0-5.38,0-21.04,0-23.5.03-.26.15-.26.49-.3.73-.02,2.38-.05,3.1.01l.08.02ZM380.34,411.54c-2.36,2.78-8.95,10.04-11.51,12.43-.36.07-.33-.57-.62-1.3-.21-.69-.43-1.31-.45-1.6.1-.76.95-1.34,1.47-2.13,2.1-2.61,4.4-5.16,6.48-7.34,1.24-.22,3.31-.05,4.59-.07l.04.02ZM376.55,428.78c-1.02-1.39-5.54-7.88-5.6-8.07.5-.81,1.63-1.85,2.27-2.6.2-.19.22.08.55.48,1.51,2.13,6.8,9.55,7.19,10.14-.03.16-.39.04-.72.08-.9,0-2.79.02-3.65-.01l-.05-.02Z"/>
  <path class="cls-1" d="M389.95,429.1c-9.18.4-11.16-13.67-3.45-17.21,2.63-1.11,6-.8,8.09,1.26,1.61,1.56,2.24,4,2.32,6.21-.01.97.17,1.64-.62,1.91-2.48.14-9.09.01-11.59.05-1.01.1-1.15-.85-1.05-1.71.14-1.21.96-1.04,2.13-1.06,1.58,0,3.94,0,5.45,0,1.1.02,1.67-.1,1.73-.67.11-1.03-.87-2.91-2.18-3.26-6.13-1.75-6.97,9.84-1.83,11.14,1,.3,2.11.25,3.09-.09,1.09-.31,1.9-1.36,3.02-.96,3.37,2.18-2.95,4.61-4.89,4.38h-.22Z"/>
  <path class="cls-1" d="M407.76,411.64c0,.68.04,2.01-.02,2.67-2.1.19-7.56,0-9.26.07-.35-.02-.42.09-.42-.28,0-.48,0-1.82,0-2.24,0-.41.11-.24.57-.28,2.37.02,6.99-.04,9.1.02l.02.04ZM401.11,407.39c.81-.08,3.08-.1,3.43.06.25.14.14.53.16,1.23v12.67c.1,1.91-.54,4.11,1.65,4.52.51.09,1.02-.04,1.32.41.29.45.31,1.56-.02,2.12-1.11,1.32-4.57.66-5.62-.6-1.77-2.29-1.01-4.22-1.18-6.7.14-4.64-.28-12.45.16-13.68l.08-.03Z"/>
  <path class="cls-1" d="M410.72,406.97c0-2.58,4.48-2.59,4.39.09.09,2.63-4.37,2.65-4.39.09v-.18ZM414.73,411.62c.25,3.81.03,14.28.07,17-.11.17-.22.13-.52.16-.63,0-2.32.03-3.05-.02-.38-.04-.22-.3-.26-.9,0-3.16,0-14.29,0-15.97.01-.31.13-.27.54-.3.83,0,2.48-.04,3.15.02l.07.02Z"/>
  <path class="cls-1" d="M422.81,415.2c.02,2.62,0,5.8,0,8.66-.1,2.52.21,4.48-.16,4.86-.52.1-2.56.04-3.13.05-.41-.03-.52,0-.54-.3,0-1.85,0-15.18,0-16.67.01-.09.05-.15.16-.18.43-.07,1.07-.04,1.64-.04.47,0,1.01-.03,1.41.05.72-.02.48,3.22.61,3.48v.1ZM421.72,419.18c-1.27.4-.61-2.34-.33-3.04,1.13-4.94,9.02-6.98,11.27-1.91.76,1.91.61,3.5.64,5.58-.01,2.64.03,7.25-.02,8.46-.04.32-.19.44-.53.5-.58.09-1.79.06-2.43.04-1.37-.07-.77-.84-.91-2.4,0-2.59.02-6.1-.01-8.59.09-1.99-1.37-3.74-3.55-3.33-1.83.18-3.12,1.74-3.53,3.48-.11.4-.24.87-.5,1.14l-.09.08Z"/>
  <path class="cls-1" d="M436.46,420.31c-.58-10.54,12.18-12.95,13.5-1.76.57,3.81-.9,9.37-5.05,10.37-5.14,1.35-8.65-3.84-8.44-8.41v-.2ZM448.58,411.79c.53-.36,1.84-.26,2.56-.21.33.04.69.17.68.58.03,4.07,0,12.56,0,15.25.55,6.38-5.84,9.61-11.52,7.49-1.12-.44-2.46-1.12-2.66-1.97-.19-.85.7-1.91,1.51-1.82.68.03,1.43.77,2.34,1.05,3.1,1.15,6.45-.68,6.32-4.05.02-3.17,0-7.72,0-10.74,0-1.57,0-2.06.15-3.53.09-.64.04-1.46.47-1.95l.12-.1ZM440.31,420.09c-.08,2.03.57,5.16,2.93,5.77,3.19.91,5.38-2.05,5.25-4.94.93-8.11-8.1-9.19-8.18-1.02v.19Z"/>
  <path class="cls-2" d="M347.61,232.45c.02.3.02.59.02.88,0,27.86-.17,55.53-.19,83.35,0,3.46-2.79,6.25-6.24,6.25h-23.88c-3.45,0-6.25-2.79-6.25-6.25v-20.74c0-3.45-2.8-6.25-6.25-6.25h-20.57c-31.49,0-56.95-25.06-56.95-56.36,0-.29,0-.58,0-.88,0-.29,0-.57,0-.86,0-27.85.17-55.55.18-83.38,0-3.45,2.79-6.24,6.24-6.24h23.87c3.45,0,6.25,2.79,6.25,6.24v20.76c0,3.44,2.81,6.26,6.25,6.26h20.59c31.47,0,56.95,25.05,56.95,56.36,0,.29,0,.57-.02.86Z"/>
  <path class="cls-3" d="M267.62,245.94v-33.25c0-4.13,4.46-6.71,8.04-4.65l28.97,16.62c3.59,2.06,3.59,7.25,0,9.31l-28.97,16.62c-3.58,2.05-8.04-.53-8.04-4.65Z"/>
</svg>