<?xml version="1.0" encoding="UTF-8"?>
<svg id="Layer_1" data-name="Layer 1" xmlns="http://www.w3.org/2000/svg" viewBox="0 0 576 576">
  <defs>
    <style>
      .cls-1 {
        fill: #fff;
      }
    </style>
  </defs>
  <g>
    <path class="cls-1" d="M117.02,264.2c-1.45-5.73-4.72-11.37-9.97-14.32-6.28-3.6-16.04-3.76-21.71,1.51-.94.74-1.37,1.19-1.42.18-.27-4.61.51-24.44-.32-26.77-3.61-.3-9.57-.02-13.35-.11-2.07,0-3.28-.03-3.61.06-.18.04-.22.12-.23.27.03,5.45-.03,62.46,0,79.01-.06.55.38.48.83.5,1.82.02,10.21.01,13.24,0,2.09.22,1.76-2.23,2.16-3.66.25-1.02.64-1.25,1.32-.71,6.49,7.11,18.74,6.92,25.82.95,9.8-8.85,9.74-24.54,7.31-36.63l-.07-.27ZM100.89,277.06c.08,6.2-.65,15.67-9.02,15.02-3.76-.08-7.06-1.63-7.95-4.96-.04-1.68,0-7.92-.02-13.34,0-2.72-.01-5.37,0-7.83.42-2.82,3.49-4.69,6.29-5.07,9.61-1.77,10.93,8.95,10.69,15.9v.28Z"/>
    <path class="cls-1" d="M144.45,224.78c.49,8.11.02,31.41.18,43.69,0,17.49.02,33.96-.01,35.76-.02.1-.06.16-.17.2-.18.07-.57.07-1.32.07-3.04-.06-12.23.15-15.93-.1-.28-5.16-.17-74.35-.04-79.56,4.21-.29,13.66-.09,17.23-.08h.06Z"/>
    <path class="cls-1" d="M205.59,248.34c.48.7.02,4.45.18,10.11-.23,15.61.45,43.05-.26,46.01-3.63.21-11.7.03-14.79.06-.37-.02-.7-.07-.96-.3-.8-.25-.34-4.92-1.6-4.62-6.17,5.94-14.91,7.48-22.72,4.4-7.2-2.69-10.25-10.86-10.32-17.98-.14-9.73-.01-32.73-.04-37.18,0-.61.58-.54,1.08-.57,2.59-.01,12.74-.01,15.33,0,.37.02.79-.03,1,.26.26,8.82,0,30.73.09,35.33-.19,3.08,1.28,7.12,4.84,7.8,4.06.92,9.81-.49,10.78-4.86.05-4.3-.07-30.46.04-38.16.08-.32.39-.33.72-.35,2.49.04,13.44-.13,16.57.04l.06.02Z"/>
    <path class="cls-1" d="M266.26,274.38c.25-16.24-10.81-28.42-27.46-27.07-15.32.25-25.07,13.08-25.1,27.71-1.64,20.48,15.24,33.46,34.79,30.04,5.72-1.09,12.28-3.85,15.63-8.92.18-1.94-1.6-2.78-2.92-4.69-1.35-1.54-2.33-2.93-3.51-4.05-1.04-.95-1.97.08-2.86.78-6.8,5.96-20.15,5.17-22.79-4.63-.29-1.06-.34-1.55.47-1.62,4.5-.03,29.41.02,33.06-.02.7-.1.6-.51.69-1.4.03-1.67.03-4.07,0-5.85v-.27ZM249.18,270.79c-.08.29-.43.12-1.13.17h-2.8c-4.79-.03-12.46.06-13.51-.04-.08-.04-.12-.13-.13-.28.24-3.53,2.29-8.41,6.01-9.42,7.01-1.98,12.37,2.48,11.59,9.46l-.03.12Z"/>
    <path class="cls-1" d="M324.04,263.85c-1.64-6.27-5.79-12.52-12.01-15-6.12-2.54-14.53-2.12-19.31,2.33-.5.44-1.35,1.24-1.76,1.2-1.31-.31-.44-3.99-2.08-4.05-3.49-.18-11.95,0-14.38-.06-.43.02-.95-.09-.97.38,0,4.52,0,64.07,0,75.49.02.78-.05,1.26.04,1.82.14.16.42.18.72.18,2.02.02,12.94.01,15.66,0,.59,0,1.11-.09,1.08-.76.19-3.27-.31-20.92.19-24.82.28-.2,1.18.76,2.43,1.7,6.19,4.74,15.89,4.05,21.94-.5,10.83-8.66,11.34-25,8.52-37.64l-.08-.27ZM308.02,277c-.13,4.63-.43,11.05-4.73,13.97-2.75,1.72-7.43,1.3-9.98-.79-1.08-.95-2.3-2.27-2.27-3.74,0-1.17,0-2.15,0-3.63,0-5.52,0-14.58,0-16.89.39-2.8,3.32-4.61,6.04-5.01,9.47-1.91,11.19,8.81,10.94,15.81v.28Z"/>
    <path class="cls-1" d="M367.03,247.98c.63.46.5,1.45.48,3.19-.03,1.37-.06,3.09-.09,4.82-.26,2.29.37,5.94-.53,7.68-.7.5-1.87.21-2.76.2-4.91-.42-11.47.32-13.15,5.46-.11,6.83.01,31.65-.05,34.63,0,.6-.58.55-1.08.58-2.24.01-10.13,0-13.9,0-1.47-.09-2.31.26-2.52-.38-.03-3.65,0-50.71,0-55.37.02-.54.2-.48.97-.53,2.61.14,12.04-.31,14.89.19,1.08,1,.62,3.63.99,4.99.11.7.27,1.04.52.96.44-.17.96-1.09,1.37-1.57,3.24-4.59,9.47-6.73,14.76-4.95l.13.09Z"/>
    <path class="cls-1" d="M373.47,233.67c-.07-10.69,18.46-11.29,19.38-.79,1.35,12.02-19.3,12.71-19.38,1.07v-.28ZM391.92,248.37c.41,11.37.03,53.55.13,55.83-.21.54-.91.19-1.92.3-3.34,0-11.36,0-14.18,0-2.09.11-1.28-.39-1.44-1.77.19-9.08-.37-50.83.2-54.36,3.75-.18,13.1-.07,17.15-.02l.06.02Z"/>
    <path class="cls-1" d="M453.14,268.58c.03,8.24.01,31.43,0,35.26-.02.4-.07.58-.5.65-3.73.14-10.11,0-14.25.05-1.72-.01-2.52.06-2.73-.21-.7-6.36.73-31.63-.67-38.92-1.48-6.46-12.6-5.43-14.83-.66-.48,9.51,0,34.56-.17,39.16-.02.43-.11.55-.62.6-.46.04-1.32.02-2.54.03-3.56,0-10.55.05-13.95-.04-.25-.04-.34-.12-.38-.28-.02-3.73-.03-43.25-.02-54.9-.01-.65-.08-1.05.64-1.04,2.97-.01,11.32-.09,14.83.03,1.61.34.98,3.43,1.45,4.67.34,1.51,1.15.56,1.89-.11,5.65-5.8,15.52-7.11,22.64-3.85,7.22,3.22,9.19,12.38,9.19,19.37v.19Z"/>
    <path class="cls-1" d="M492.79,291.91c.32.2.43.61.47,1.01.09,1.82.03,6.53.03,8.97.05,1.29-.54,2.35-1.84,2.63-2.72.74-5.56,1.03-8.41.99-10.03.19-17.18-5.5-17.25-15.78-.17-7.54-.01-20.7-.07-27.07.08-2.1-.05-2.18-1.95-2.2-1.27-.07-3.19.13-4.39-.19-.51-.17-.67-.52-.74-1.06-.1-1.77-.04-6.97-.04-9.21.02-.74.13-1.43.96-1.59,1.21-.24,3.56-.05,4.74-.17.74-.07,1.13-.25,1.29-.71.34-2.99.02-8.5.14-11.67-.03-1.12.21-1.59,1.27-1.54,2.92,0,13.05-.04,15.31.02.58.02.85.34.88.9.16,2.11-.14,9.64.14,12.29.14.52.52.68,1.34.73,1.32.07,3.42.01,4.84.03,1.37.02,2.99-.24,2.92,1.46.03,2.09.06,7.62-.02,9.46-.08.87-.42,1.14-1.41,1.2-1.51.08-5.09-.01-6.57.06-.77.07-1.11.09-1.19.76-.06,3.13,0,17.49-.02,23.5-.24,7.52,3.45,6.94,9.44,7.11l.12.06Z"/>
  </g>
  <path class="cls-1" d="M312.17,324.53c-.03,4.28.1,14.37-.05,17.78-.37.3-.85.13-1.88.18-.87,0-1.85,0-2.37,0-.53-.04-.69,0-.7-.39,0-2.42-.01-19.83,0-21.79.02-.12.06-.2.21-.24.78-.11,2.01-.04,2.87-.06.35,0,.65,0,.89.03.81.03.77.63.85,1.9.07,1.13.14,2.14.16,2.48v.12ZM310.81,329.95c-1.77.57-.88-3.21-.5-4.18,1.39-5.93,10.3-8.57,13.98-3.42,1.23,1.8,1.4,4.09,1.39,6.18,0,2.07,0,7.96,0,11.3-.01,1,.04,1.75-.06,2.14-.09.32-.34.45-.87.5-.83.06-2.59.08-3.4-.03-.44-.08-.64-.24-.69-.65-.11-2.51.06-10.4-.07-14.08,0-4.28-5.38-5.33-7.82-2.22-1.11,1.19-.98,3.07-1.83,4.33l-.12.11ZM324.71,328.81c-.81.77-1.93.08-1.63-1.34.06-.37.15-.8.25-1.16.83-3.23,3.25-5.91,6.56-6.5,12.23-1.88,8.79,11.71,9.28,19.91-.16,1.48.53,2.58-.94,2.76-.84.06-2.61.08-3.42-.03-.44-.08-.64-.24-.7-.65-.07-1.73-.01-8.88-.03-12.03.04-1.99.05-4.83-2.21-5.73-1.91-.78-4.6-.07-5.63,1.71-.66.87-.66,2.09-1.37,2.91l-.15.15Z"/>
  <path class="cls-1" d="M357.57,329.19c.44.64.45,2.21-.5,2.53-.58.23-1.49.16-2.35.19-2.47,0-5.69.47-6.17,3.31-.49,3.2,3.45,4.44,6.01,3.09.61-.29,1.18-.7,1.64-1.19.61-.65.93-1.38,1.35-1.38.59-.08,1.36,1.3,1.06,2.3-.35,1.12-1.35,2.26-2.32,3.03-3.9,3.29-11.54,2.02-12.85-3.37-1.77-7.95,8.21-9.88,13.98-8.64l.14.13ZM356.96,338.16c-.04-2.49,0-7.3-.02-9.56.26-2.73-1.19-5.34-4.36-5.12-1.49-.03-2.85.95-3.64,2.04-.42.47-.92.77-1.72.88-5.51.8-3.2-3.08-.55-5,4.21-2.71,11.24-2.56,14.18,1.63,1.96,3.06,1.11,6.83,1.29,10.31.02,3.22-.09,4.2.2,6.22.02.84.77,2.03.04,2.67-.71.38-3.08.43-4.21-.04-1.17-.66-1.06-2.64-1.21-3.84v-.19Z"/>
  <path class="cls-1" d="M372.19,324.23c.02,3.4,0,7.67,0,11.39-.04,3.37.07,6.24-.06,6.7-.38.3-.85.12-1.88.17-.87,0-1.85,0-2.37,0-.53-.04-.69,0-.7-.39,0-2.42-.01-19.83,0-21.79.21-.52.98-.2,2-.29.89.01,1.8-.04,2.25.06.54.19.55.66.59,1.23.05.84.11,2.04.15,2.81v.12ZM379.02,319.87c.16,1.02,0,3.58.01,4.33-.03.18-.13.25-.3.25-2.53-.4-5.79.25-6.62,2.96-.39.66-.11,2.32-1.22,2.14-.64-.34-.24-1.34-.26-1.94.15-4.29,3.47-9.34,8.28-7.81l.1.08Z"/>
  <path class="cls-1" d="M387.04,310.64c.52.5.07,2.84.22,6.32-.01,5.71.02,22.55-.02,25.19-.08.28-.27.26-.63.31-.6.04-2.03.02-3.01.02-.94-.07-1.44.19-1.37-.78,0-7.03,0-27.5,0-30.71.03-.35.19-.34.64-.4.96-.02,3.11-.07,4.06.02l.11.02ZM401.23,319.96c-3.09,3.63-11.7,13.12-15.04,16.25-.48.09-.43-.74-.81-1.7-.27-.91-.56-1.71-.59-2.1.12-1,1.24-1.75,1.92-2.78,2.74-3.41,5.75-6.74,8.47-9.6,1.62-.28,4.32-.07,6.01-.1l.05.02ZM396.28,342.49c-1.34-1.82-7.24-10.3-7.31-10.55.65-1.06,2.13-2.42,2.97-3.4.26-.25.29.11.71.62,1.97,2.79,8.89,12.49,9.4,13.25-.04.21-.5.06-.94.11-1.18,0-3.65.02-4.77-.02l-.07-.02Z"/>
  <path class="cls-1" d="M413.79,342.92c-11.99.52-14.58-17.87-4.51-22.49,3.44-1.45,7.85-1.05,10.57,1.64,2.11,2.03,2.93,5.23,3.03,8.12-.01,1.27.22,2.15-.81,2.5-3.24.18-11.87.02-15.15.07-1.32.13-1.5-1.11-1.37-2.24.19-1.59,1.25-1.36,2.78-1.39,2.06,0,5.15,0,7.12,0,1.44.02,2.18-.13,2.26-.87.15-1.34-1.13-3.8-2.84-4.26-8.01-2.28-9.11,12.86-2.39,14.56,1.3.39,2.76.32,4.04-.12,1.42-.41,2.48-1.78,3.94-1.25,4.4,2.84-3.85,6.02-6.39,5.72h-.29Z"/>
  <path class="cls-1" d="M437.07,320.09c0,.89.05,2.62-.02,3.49-2.74.24-9.88,0-12.1.09-.45-.03-.54.11-.54-.36,0-.63,0-2.37,0-2.93,0-.53.14-.31.75-.36,3.1.03,9.13-.05,11.89.03l.02.06ZM428.37,314.53c1.06-.1,4.03-.14,4.48.08.33.18.18.69.22,1.61v16.56c.13,2.5-.7,5.38,2.16,5.9.66.12,1.34-.05,1.73.53.38.58.4,2.03-.02,2.77-1.45,1.73-5.98.86-7.35-.79-2.31-2.99-1.32-5.51-1.55-8.76.18-6.07-.36-16.27.22-17.87l.11-.03Z"/>
  <path class="cls-1" d="M440.94,313.99c0-3.38,5.85-3.39,5.73.12.12,3.44-5.71,3.47-5.73.12v-.23ZM446.18,320.06c.32,4.98.04,18.66.09,22.21-.15.22-.28.17-.68.2-.82,0-3.04.04-3.99-.03-.5-.06-.28-.39-.33-1.18,0-4.13,0-18.68,0-20.88.02-.4.17-.35.71-.39,1.09.01,3.25-.05,4.11.03l.09.03Z"/>
  <path class="cls-1" d="M456.74,324.75c.02,3.42,0,7.58,0,11.31-.13,3.3.27,5.86-.21,6.35-.68.13-3.34.06-4.09.06-.53-.04-.69,0-.7-.39,0-2.42-.01-19.83,0-21.79.02-.12.06-.2.21-.24.57-.09,1.4-.05,2.14-.06.62,0,1.32-.04,1.84.06.94-.03.63,4.21.79,4.55v.13ZM455.32,329.95c-1.67.53-.8-3.06-.44-3.98,1.47-6.46,11.79-9.12,14.72-2.5.99,2.5.8,4.57.83,7.29-.02,3.45.04,9.48-.03,11.05-.06.41-.25.57-.7.65-.76.11-2.33.08-3.18.05-1.79-.1-1.01-1.09-1.18-3.13-.01-3.39.02-7.97-.01-11.23.12-2.6-1.8-4.89-4.64-4.36-2.39.24-4.08,2.27-4.61,4.55-.14.52-.31,1.14-.65,1.49l-.12.11Z"/>
  <path class="cls-1" d="M474.58,331.42c-.75-13.78,15.91-16.93,17.64-2.3.75,4.98-1.18,12.25-6.6,13.55-6.72,1.76-11.3-5.02-11.03-10.99v-.26ZM490.41,320.29c.7-.47,2.4-.33,3.34-.27.43.06.9.23.89.76.04,5.32,0,16.42.01,19.93.72,8.33-7.63,12.56-15.05,9.79-1.46-.57-3.22-1.46-3.47-2.58-.25-1.11.92-2.5,1.97-2.38.89.03,1.87,1.01,3.06,1.37,4.05,1.51,8.43-.88,8.26-5.3.03-4.14,0-10.09.01-14.03-.01-2.05,0-2.69.2-4.61.11-.84.05-1.91.62-2.55l.16-.13ZM479.61,331.13c-.1,2.65.75,6.75,3.83,7.55,4.16,1.19,7.03-2.68,6.87-6.46,1.21-10.6-10.59-12.01-10.69-1.33v.25Z"/>
</svg>